<?xml version="1.0" encoding="UTF-8" standalone="no"?>
<!DOCTYPE svg PUBLIC "-//W3C//DTD SVG 1.1//EN" "http://www.w3.org/Graphics/SVG/1.1/DTD/svg11.dtd">
<svg width="100%" height="100%" viewBox="0 0 800 600" version="1.1" xmlns="http://www.w3.org/2000/svg" xmlns:xlink="http://www.w3.org/1999/xlink" xml:space="preserve" xmlns:serif="http://www.serif.com/" style="fill-rule:evenodd;clip-rule:evenodd;">
    <g transform="matrix(0.951647,0,0,0.951647,19.341,0.290116)">
        <path d="M590,18.61L590,581.39C590,588.35 584.35,594 577.39,594L222.61,594C215.65,594 210,588.35 210,581.39L210,18.61C210,11.65 215.65,6 222.61,6L577.39,6C584.35,6 590,11.65 590,18.61Z" style="fill:none;stroke:rgb(122,168,56);stroke-width:6px;"/>
    </g>
    <g id="slot-label" transform="matrix(1,0,0,1,399.36,596.681)">
        <g transform="matrix(32,0,0,32,48.1388,0)">
        </g>
        <text x="-48.139px" y="0px" style="font-family:'Helvetica-Bold', 'Helvetica';font-weight:700;font-size:32px;fill:rgb(122,168,56);">B<tspan x="-23.749px 0.64px 25.029px " y="0px 0px 0px ">ACK</tspan></text>
    </g>
</svg>
