<?xml version="1.0" encoding="UTF-8" standalone="no"?>
<!DOCTYPE svg PUBLIC "-//W3C//DTD SVG 1.1//EN" "http://www.w3.org/Graphics/SVG/1.1/DTD/svg11.dtd">
<svg width="100%" height="100%" viewBox="0 0 1100 600" version="1.1" xmlns="http://www.w3.org/2000/svg" xmlns:xlink="http://www.w3.org/1999/xlink" xml:space="preserve" xmlns:serif="http://www.serif.com/" style="fill-rule:evenodd;clip-rule:evenodd;stroke-linecap:round;stroke-miterlimit:1.5;">
    <g transform="matrix(-1,0,0,1,1100.01,0)">
        <g transform="matrix(-6.67567e-15,1.99046,-27.75,1.2222e-15,4330.01,-401.185)">
            <path d="M400,120L400,160" style="fill:none;fill-rule:nonzero;stroke:rgb(122,168,56);stroke-width:0.25px;"/>
        </g>
        <g transform="matrix(-6.67567e-15,1.99046,-27.75,1.2222e-15,4330.01,-431.185)">
            <path d="M400,120L400,160" style="fill:none;fill-rule:nonzero;stroke:rgb(122,168,56);stroke-width:0.25px;"/>
        </g>
        <g transform="matrix(-6.67567e-15,1.99046,-27.75,1.2222e-15,4330.01,-421.185)">
            <path d="M400,120L400,160" style="fill:none;fill-rule:nonzero;stroke:rgb(122,168,56);stroke-width:0.15px;"/>
        </g>
        <g transform="matrix(-6.67567e-15,1.99046,-27.75,1.2222e-15,4330.01,-411.185)">
            <path d="M400,120L400,160" style="fill:none;fill-rule:nonzero;stroke:rgb(122,168,56);stroke-width:0.15px;"/>
        </g>
        <g transform="matrix(6.67567e-15,1.99046,27.75,1.2222e-15,-3639.99,-696.184)">
            <path d="M400,117.477L400,160" style="fill:none;fill-rule:nonzero;stroke:rgb(122,168,56);stroke-width:0.25px;stroke-linejoin:round;"/>
        </g>
        <g transform="matrix(1,0,0,1,-59.9868,0)">
            <path d="M859.997,100L1060,365L1060,395" style="fill:none;stroke:rgb(122,168,56);stroke-width:5px;stroke-linejoin:round;"/>
        </g>
        <g transform="matrix(1,0,0,1,-59.9868,-119.999)">
            <path d="M860,220L59.987,220" style="fill:none;stroke:rgb(122,168,56);stroke-width:5px;stroke-linejoin:round;"/>
        </g>
        <g transform="matrix(1.25,-1.7763e-17,-1.7763e-17,1,-74.9833,144.999)">
            <path d="M860,220L59.987,220" style="fill:none;stroke:rgb(122,168,56);stroke-width:5px;stroke-linejoin:round;"/>
        </g>
        <g transform="matrix(1.25,-1.7763e-17,-1.7763e-17,1,-74.9833,154.999)">
            <path d="M860,220L59.987,220" style="fill:none;stroke:rgb(122,168,56);stroke-width:2.65px;stroke-linejoin:round;"/>
        </g>
        <g transform="matrix(1.25,-1.7763e-17,-1.7763e-17,1,-74.9833,164.999)">
            <path d="M860,220L59.987,220" style="fill:none;stroke:rgb(122,168,56);stroke-width:2.65px;stroke-linejoin:round;"/>
        </g>
        <g transform="matrix(1.25,-1.7763e-17,-1.7763e-17,1,-74.9965,174.999)">
            <path d="M860,220L59.987,220" style="fill:none;stroke:rgb(122,168,56);stroke-width:5px;stroke-linejoin:round;"/>
        </g>
    </g>
</svg>
